<svg width="206" height="202" viewBox="0 0 206 202" fill="none" xmlns="http://www.w3.org/2000/svg">
<rect width="206" height="202" fill="white"/>
<g id="SOCIAL - Empty Contact, Empty Friend List, Search for friends">
<g id="Social 05">
<g id="Group">
<path id="Vector" d="M145.008 34.4165C145.008 34.4165 131.024 70.1001 185.342 102.972C233.581 132.165 184.332 181.072 156.425 189.21C120.275 199.752 79.9806 167.995 61.6669 194.118C43.3532 220.241 -12.3091 173.51 12.8839 132.713C44.2226 81.9629 6.87509 81.1789 0.622271 59.0729C-3.86543 43.2075 26.3432 -0.517256 61.8942 13.1841C91.8099 24.7133 97.1454 12.3014 104.319 4.99202C114.664 -5.55012 152.896 1.72316 145.008 34.4165Z" fill="#DEE9FF"/>
<g id="Group_2">
<g id="Group_3">
<path id="Vector_2" d="M83.9729 152.27C74.9405 151.86 64.6764 141.048 69.1927 138.174C73.7089 135.3 73.1614 129.279 71.5192 128.458C61.392 124.49 58.9285 115.594 56.7389 104.235C54.5493 92.8764 55.7809 56.7474 55.7809 56.7474L68.5083 50.3152L103.68 48.2624L113.67 64.8217C113.67 64.8217 110.008 74.7081 109.701 84.5998C112.099 82.6839 116.287 80.0453 119.417 81.9284C121.443 83.1436 122.664 85.0432 123.183 87.1672C123.857 89.9206 123.348 93.0628 121.881 95.6139C120.862 97.3874 119.669 99.1559 118.016 100.514C115.678 102.435 112.416 103.525 107.385 102.638C107.588 105.337 112.848 105.452 112.848 108.205C112.848 110.805 112.75 114.774 112.848 116.279C113.669 128.596 120.375 132.839 123.796 136.944C127.217 141.05 93.0053 152.681 83.9729 152.27Z" fill="#A2BDFF"/>
<path id="Vector_3" d="M57.8357 101.36C63.3524 101.36 67.8245 96.4976 67.8245 90.4989C67.8245 84.5003 63.3524 79.6375 57.8357 79.6375C52.319 79.6375 47.8468 84.5003 47.8468 90.4989C47.8468 96.4976 52.319 101.36 57.8357 101.36Z" fill="#0E84E5"/>
<path id="Vector_4" d="M57.8352 99.2077C62.2937 99.2077 65.9081 95.3087 65.9081 90.499C65.9081 85.6893 62.2937 81.7903 57.8352 81.7903C53.3767 81.7903 49.7624 85.6893 49.7624 90.499C49.7624 95.3087 53.3767 99.2077 57.8352 99.2077Z" fill="#D4E5FF"/>
<path id="Vector_5" d="M84.1787 102.181C89.5073 102.181 93.827 97.6474 93.827 92.0543C93.827 86.4613 89.5073 81.9272 84.1787 81.9272C78.8502 81.9272 74.5305 86.4613 74.5305 92.0543C74.5305 97.6474 78.8502 102.181 84.1787 102.181Z" fill="#0E84E5"/>
<path id="Vector_6" d="M84.1782 100.608C88.42 100.608 91.8587 96.7785 91.8587 92.0546C91.8587 87.3307 88.42 83.5012 84.1782 83.5012C79.9363 83.5012 76.4976 87.3307 76.4976 92.0546C76.4976 96.7785 79.9363 100.608 84.1782 100.608Z" fill="#D4E5FF"/>
<path id="Vector_7" d="M67.3436 87.166C67.3436 87.166 72.3053 85.2801 75.5732 88.8383C75.5732 89.4543 75.0775 90.499 75.0775 90.499C75.0775 90.499 70.6948 87.0592 67.3436 89.659C66.7979 88.5828 66.469 87.4159 67.3436 87.166Z" fill="#0E84E5"/>
<path id="Vector_8" d="M93.0151 89.412L109.55 83.5012L109.392 84.9644L93.5436 91.5864L93.0151 89.412Z" fill="#0E84E5"/>
<path id="Vector_9" d="M25.8485 162.274C25.4836 161.283 25.3402 160.224 25.4286 159.172C25.517 158.119 25.8349 157.099 26.36 156.183L30.6001 148.712C30.6001 148.712 31.1475 145.793 43.5556 144.059C55.9637 142.326 67.9005 139.208 69.193 138.175C69.193 138.175 91.1183 157.008 123.401 136.483C123.401 136.483 149.754 151.358 155.775 151.906C159.312 152.228 162.063 159.191 163.73 164.884C164.006 165.828 164.086 166.82 163.964 167.797C163.841 168.774 163.52 169.715 163.019 170.562C162.518 171.41 161.848 172.145 161.051 172.723C160.254 173.301 159.347 173.709 158.386 173.923C131.743 179.849 39.098 197.67 25.8485 162.274Z" fill="#0E84E5"/>
<path id="Vector_10" d="M118.017 100.512C114.891 107.952 112.756 111.082 110.249 110.804C107.633 110.514 106.806 106.282 106.981 102.56C112.242 103.583 115.619 102.483 118.017 100.512Z" fill="#418DF9"/>
<path id="Vector_11" d="M123.251 86.9909C123.229 87.0511 123.207 87.1113 123.185 87.1662C122.665 85.0421 121.444 83.1426 119.419 81.9274C116.206 79.9954 111.876 82.8251 109.511 84.7575C109.96 76.1412 109.204 66.3917 104.502 64.2732C96.2906 60.5781 95.9567 61.3993 90.8548 61.673C86.0648 61.9302 74.3228 62.6692 72.3303 61.5142C73.644 62.7462 79.8463 68.0339 89.738 68.5156C90.8548 69.3368 90.1321 70.0211 89.038 69.8841C87.9439 69.7472 73.0261 69.4737 61.8041 55.3776C61.8041 55.3776 55.2954 67.5522 55.4376 78.5056C55.4376 78.5056 51.2656 70.2943 53.8665 58.5248C55.4376 49.7663 59.4776 50.5868 59.4776 50.5868C59.4776 50.5868 56.7393 31.0176 75.4883 32.7967C80.9623 33.481 90.2685 41.5554 96.5637 41.4185C102.859 41.2816 108.607 41.6923 108.607 41.6923C108.607 41.6923 117.502 40.3237 119.008 52.3669C119.073 54.7913 120.823 55.8839 125.577 56.4726C130.477 57.0792 129.682 69.7474 123.251 86.9909Z" fill="#418DF9"/>
</g>
<path id="Vector_12" d="M168.011 191.061C180.596 191.061 190.797 180.86 190.797 168.275C190.797 155.69 180.596 145.489 168.011 145.489C155.426 145.489 145.225 155.69 145.225 168.275C145.225 180.86 155.426 191.061 168.011 191.061Z" fill="#418DF9" stroke="white" stroke-width="15" stroke-miterlimit="10"/>
<path id="Vector_13" d="M176.79 166.366H170.301C170.251 166.366 170.202 166.357 170.155 166.337C170.109 166.318 170.067 166.29 170.031 166.255C169.996 166.219 169.968 166.177 169.949 166.131C169.929 166.085 169.92 166.035 169.92 165.985V159.496C169.915 158.993 169.712 158.512 169.355 158.157C168.997 157.803 168.515 157.604 168.011 157.604C167.508 157.604 167.025 157.803 166.667 158.157C166.31 158.512 166.107 158.993 166.103 159.496V165.985C166.103 166.086 166.063 166.183 165.991 166.255C165.919 166.326 165.822 166.366 165.721 166.366H159.233C158.727 166.366 158.241 166.568 157.883 166.925C157.525 167.283 157.324 167.769 157.324 168.275C157.324 168.781 157.525 169.266 157.883 169.624C158.241 169.982 158.727 170.183 159.233 170.183H165.721C165.771 170.183 165.821 170.193 165.867 170.212C165.914 170.231 165.956 170.26 165.991 170.295C166.026 170.33 166.055 170.373 166.074 170.419C166.093 170.465 166.103 170.515 166.103 170.565V177.054C166.107 177.557 166.31 178.038 166.667 178.393C167.025 178.747 167.508 178.946 168.011 178.946C168.515 178.946 168.997 178.747 169.355 178.393C169.712 178.038 169.915 177.557 169.92 177.054V170.565C169.92 170.515 169.929 170.465 169.949 170.419C169.968 170.373 169.996 170.33 170.031 170.295C170.067 170.26 170.109 170.231 170.155 170.212C170.201 170.193 170.251 170.183 170.301 170.183H176.79C177.296 170.183 177.781 169.982 178.139 169.624C178.497 169.266 178.698 168.781 178.698 168.275C178.698 167.769 178.497 167.283 178.139 166.925C177.781 166.568 177.296 166.366 176.79 166.366Z" fill="white"/>
</g>
</g>
</g>
</g>
</svg>
